# xmcd
#
# Track frame offsets: 
#        150
#        11925
#        24600
#        38022
#        50182
#        61355
#        73280
#        84385
#        103760
#        116740
#        128807
#        142010
#        155820
#        170975
#        185137
#        198492
#
# Disc length: 2831 seconds
#
# Revision: 3
# Processed by: cddbd v1.5.2PL0 Copyright (c) Steve Scherf et al.
# Submitted via: ExactAudioCopy v1.0b3
#
DISCID=fe0b0d10
DTITLE=Wynette, Tammy - Biggest Hits
DYEAR=1989
DGENRE=Country
TTITLE0=I Don't Wanna Play House
TTITLE1=Take Me To Your World
TTITLE2=D.I.V.O.R.C.E.
TTITLE3=Stand By Your Man
TTITLE4=The Ways To Love A Man
TTITLE5=When He Loves Me (He Loves Me All The Way)
TTITLE6=Run Woman Run
TTITLE7=Bedtime Story
TTITLE8=My Man
TTITLE9=Till I Get It Right
TTITLE10=Kids (Say The Darndest Things)
TTITLE11=Til I Can Make It On My Own
TTITLE12=You And Me
TTITLE13=Starting Over
TTITLE14=Cowboys Don't Shoot Straight (Like They Used To)
TTITLE15=Crying In The Rain
EXTD=
EXTT0=
EXTT1=
EXTT2=
EXTT3=
EXTT4=
EXTT5=
EXTT6=
EXTT7=
EXTT8=
EXTT9=
EXTT10=
EXTT11=
EXTT12=
EXTT13=
EXTT14=
EXTT15=
PLAYORDER=
